<svg xmlns="http://www.w3.org/2000/svg" width="280" height="120" viewBox="0 0 280 120">
  <defs>
    <style>text { font-family: 'Menlo', 'Consolas', 'Courier New', monospace; }</style>
  </defs>
  <rect x="5" y="5" width="270" height="110" rx="8" ry="8" fill="#1a1b26"/>
  <rect x="5" y="5" width="270" height="110" rx="8" ry="8" fill="none" stroke="#444" stroke-width="0.5"/>
  <rect x="5" y="5" width="270" height="28" rx="8" ry="8" fill="#24253a"/>
  <rect x="5" y="25" width="270" height="8" fill="#24253a"/>
  <circle cx="22" cy="19" r="5" fill="#ff5f57"/>
  <circle cx="39" cy="19" r="5" fill="#febc2e"/>
  <circle cx="56" cy="19" r="5" fill="#28c840"/>

  <!-- Hostname segment - Sandy Brown #f4a261 -->
  <path d="M22,58 Q28,52 34,58 L34,86 Q28,92 22,86 Z" fill="#f4a261"/>
  <rect x="34" y="58" width="120" height="28" fill="#f4a261"/>
  <!-- Monitor icon -->
  <g transform="translate(40,64) scale(0.7)">
    <rect x="0" y="0" width="18" height="12" rx="1.5" fill="none" stroke="#000" stroke-width="2"/>
    <line x1="9" y1="12" x2="9" y2="16" stroke="#000" stroke-width="2"/>
    <line x1="4" y1="16" x2="14" y2="16" stroke="#000" stroke-width="2"/>
  </g>
  <text x="58" y="77" fill="#000000" font-size="14">macbook</text>
  <polygon points="154,58 166,72 154,86" fill="#f4a261"/>
  <rect x="172" y="62" width="8" height="16" fill="#c0c0c0" opacity="0.6"/>
</svg>
