<svg xmlns="http://www.w3.org/2000/svg" width="340" height="120" viewBox="0 0 340 120">
  <defs>
    <style>text { font-family: 'Menlo', 'Consolas', 'Courier New', monospace; }</style>
  </defs>
  <rect x="5" y="5" width="330" height="110" rx="8" ry="8" fill="#1a1b26"/>
  <rect x="5" y="5" width="330" height="110" rx="8" ry="8" fill="none" stroke="#444" stroke-width="0.5"/>
  <rect x="5" y="5" width="330" height="28" rx="8" ry="8" fill="#24253a"/>
  <rect x="5" y="25" width="330" height="8" fill="#24253a"/>
  <circle cx="22" cy="19" r="5" fill="#ff5f57"/>
  <circle cx="39" cy="19" r="5" fill="#febc2e"/>
  <circle cx="56" cy="19" r="5" fill="#28c840"/>

  <!-- Git segment - Dark Teal #1e756a -->
  <path d="M22,58 Q28,52 34,58 L34,86 Q28,92 22,86 Z" fill="#1e756a"/>
  <rect x="34" y="58" width="190" height="28" fill="#1e756a"/>
  <!-- Git branch icon -->
  <g transform="translate(40,64) scale(0.7)">
    <circle cx="5" cy="3" r="2.5" fill="none" stroke="#FFF" stroke-width="1.8"/>
    <circle cx="15" cy="3" r="2.5" fill="none" stroke="#FFF" stroke-width="1.8"/>
    <circle cx="5" cy="17" r="2.5" fill="none" stroke="#FFF" stroke-width="1.8"/>
    <line x1="5" y1="5.5" x2="5" y2="14.5" stroke="#FFF" stroke-width="1.8"/>
    <path d="M15,5.5 Q15,11 5,14.5" fill="none" stroke="#FFF" stroke-width="1.8"/>
  </g>
  <text x="60" y="77" fill="#FFFFFF" font-size="14">main ?7 ~2</text>
  <polygon points="224,58 236,72 224,86" fill="#1e756a"/>
  <rect x="242" y="62" width="8" height="16" fill="#c0c0c0" opacity="0.6"/>
</svg>
